<?xml version="1.0" encoding="UTF-8" standalone="no"?>
<svg
   xmlns:dc="http://purl.org/dc/elements/1.1/"
   xmlns:cc="http://creativecommons.org/ns#"
   xmlns:rdf="http://www.w3.org/1999/02/22-rdf-syntax-ns#"
   xmlns:svg="http://www.w3.org/2000/svg"
   xmlns="http://www.w3.org/2000/svg"
   xmlns:sodipodi="http://sodipodi.sourceforge.net/DTD/sodipodi-0.dtd"
   xmlns:inkscape="http://www.inkscape.org/namespaces/inkscape"
   viewBox="0 0 16 16"
   version="1.1"
   id="svg980"
   sodipodi:docname="researchgate_color.svg"
   inkscape:version="1.0.1 (c497b03c, 2020-09-10)">
  <metadata
     id="metadata986">
    <rdf:RDF>
      <cc:Work
         rdf:about="">
        <dc:format>image/svg+xml</dc:format>
        <dc:type
           rdf:resource="http://purl.org/dc/dcmitype/StillImage" />
        <dc:title></dc:title>
      </cc:Work>
    </rdf:RDF>
  </metadata>
  <defs
     id="defs984" />
  <sodipodi:namedview
     pagecolor="#ffffff"
     bordercolor="#666666"
     borderopacity="1"
     objecttolerance="10"
     gridtolerance="10"
     guidetolerance="10"
     inkscape:pageopacity="0"
     inkscape:pageshadow="2"
     inkscape:window-width="2560"
     inkscape:window-height="1395"
     id="namedview982"
     showgrid="false"
     inkscape:zoom="74.1875"
     inkscape:cx="8"
     inkscape:cy="8"
     inkscape:window-x="0"
     inkscape:window-y="23"
     inkscape:window-maximized="1"
     inkscape:current-layer="svg980" />
  <path
     d="M2 0h12a2 2 0 012 2v12a2 2 0 01-2 2H2a2 2 0 01-2-2V2a2 2 0 012-2zm6.686 12.697c.409.442.886.72 1.314.72l.1.1v.37l-.059.09c-.168.077-.435.123-.692.123-.82 0-1.511-.316-1.973-.872-.55-.634-1.367-1.846-2.136-3.216-.443 0-.608-.003-.822-.014L4.31 9.99v2.263c0 .762.123.967.494 1.023l.736.1.087.1v.411l-.104.1a51.035 51.035 0 00-1.808-.042c-.382 0-.779.01-1.243.025l-.466.018-.103-.1v-.412l.082-.098.537-.1c.376-.071.5-.273.5-1.022V6.66c0-.749-.124-.951-.498-1.023l-.538-.1L1.9 5.44v-.412l.104-.1a39.462 39.462 0 002.462-.007c.494-.015.79-.021 1.145-.021 1.789 0 2.946.87 2.946 2.428 0 1.1-.834 2.167-1.946 2.491.614 1.071 1.385 2.123 2.075 2.878zM5.228 9.173a9.59 9.59 0 01-.92-.035V5.76c.175-.012.387-.018.654-.02l.394-.001c1.149 0 1.797.593 1.797 1.66 0 1.081-.735 1.774-1.924 1.774zm6.676-4.211c-.102 0-.17-.068-.17-.17V4.32c0-.101.068-.17.17-.17h1.52c.101 0 .17.069.17.17v.404c0 .303-.005.447-.023.607a2.622 2.622 0 01-.09.479c-.124.384-.322.66-.623.866-.3.205-.685.315-1.1.315-.425 0-.787-.098-1.084-.295-.299-.198-.513-.493-.64-.88a1.707 1.707 0 01-.06-.229 4.363 4.363 0 01-.064-.635 16.052 16.052 0 010-1.01 4.635 4.635 0 01.065-.635c.015-.079.034-.155.059-.229.128-.387.342-.682.641-.88.297-.198.66-.296 1.085-.296.219 0 .417.026.595.077.177.052.336.123.475.215.139.092.258.198.358.32.099.12.18.25.241.381.049.087.03.18-.07.24l-.507.207c-.093.052-.188.018-.234-.074-.124-.227-.212-.337-.344-.42a.864.864 0 00-.514-.135c-.23 0-.336.035-.506.155a.84.84 0 00-.331.449 1.45 1.45 0 00-.068.352 12.906 12.906 0 000 1.56 1.433 1.433 0 00.068.352.68.68 0 00.292.4.92.92 0 00.545.157.97.97 0 00.55-.154.697.697 0 00.279-.38l.028-.097a1.57 1.57 0 00.041-.189c.014-.087.017-.16.017-.353h-.769z"
     fill-rule="evenodd"
     id="path978"
     style="fill:#00ccbb;fill-opacity:1" />
</svg>
