<?xml version="1.0" encoding="UTF-8" standalone="no"?>
<svg
   xmlns:dc="http://purl.org/dc/elements/1.1/"
   xmlns:cc="http://creativecommons.org/ns#"
   xmlns:rdf="http://www.w3.org/1999/02/22-rdf-syntax-ns#"
   xmlns:svg="http://www.w3.org/2000/svg"
   xmlns="http://www.w3.org/2000/svg"
   xmlns:sodipodi="http://sodipodi.sourceforge.net/DTD/sodipodi-0.dtd"
   xmlns:inkscape="http://www.inkscape.org/namespaces/inkscape"
   version="1.1"
   id="svg1667"
   xml:space="preserve"
   width="234.66667"
   height="165.33333"
   viewBox="0 0 234.66667 165.33333"
   sodipodi:docname="youtube_color.svg"
   inkscape:version="1.0.1 (c497b03c, 2020-09-10)"><metadata
     id="metadata1673"><rdf:RDF><cc:Work
         rdf:about=""><dc:format>image/svg+xml</dc:format><dc:type
           rdf:resource="http://purl.org/dc/dcmitype/StillImage" /><dc:title></dc:title></cc:Work></rdf:RDF></metadata><defs
     id="defs1671" /><sodipodi:namedview
     pagecolor="#ffffff"
     bordercolor="#666666"
     borderopacity="1"
     objecttolerance="10"
     gridtolerance="10"
     guidetolerance="10"
     inkscape:pageopacity="0"
     inkscape:pageshadow="2"
     inkscape:window-width="2560"
     inkscape:window-height="1395"
     id="namedview1669"
     showgrid="false"
     inkscape:zoom="3.5897179"
     inkscape:cx="131.53405"
     inkscape:cy="80.803739"
     inkscape:window-x="0"
     inkscape:window-y="23"
     inkscape:window-maximized="1"
     inkscape:current-layer="g1675" /><g
     id="g1675"
     inkscape:groupmode="layer"
     inkscape:label="ink_ext_XXXXXX"
     transform="matrix(1.3333333,0,0,-1.3333333,0,165.33333)"><g
       id="g1677"
       transform="scale(0.1)"><path
         d="m 1723.22,1046.37 c -20.24,76.22 -79.87,136.24 -155.6,156.61 C 1430.37,1240 880,1240 880,1240 c 0,0 -550.367,0 -687.621,-37.02 C 116.656,1182.61 57.0156,1122.59 36.7773,1046.37 0,908.227 0,620 0,620 0,620 0,331.777 36.7773,193.621 57.0156,117.41 116.656,57.3906 192.379,37.0117 329.633,0 880,0 880,0 c 0,0 550.37,0 687.62,37.0117 75.73,20.3789 135.36,80.3983 155.6,156.6093 C 1760,331.777 1760,620 1760,620 c 0,0 0,288.227 -36.78,426.37"
         style="fill:#ed1d24;fill-opacity:1;fill-rule:nonzero;stroke:none"
         id="path1679" /><path
         d="m 700,358.313 460,261.675 -460,261.7 z"
         style="fill:#ffffff;fill-opacity:1;fill-rule:nonzero;stroke:none"
         id="path1681" /></g></g></svg>
